<svg id="ar" xmlns="http://www.w3.org/2000/svg" width="20" height="20" viewBox="0 0 20 20">
  <rect id="Bounding_Box" width="20" height="20" fill="none"/>
  <g id="Art_layer" transform="translate(0.836 0.836)">
    <path id="Path_1550" data-name="Path 1550" d="M2.672,3.508a.838.838,0,0,1,.836-.836H5.18V1H3.508A2.515,2.515,0,0,0,1,3.508V5.18H2.672Z" transform="translate(-1 -1)" fill="#fff"/>
    <path id="Path_1551" data-name="Path 1551" d="M19.672,2.672a.838.838,0,0,1,.836.836V5.18H22.18V3.508A2.515,2.515,0,0,0,19.672,1H18V2.672Z" transform="translate(-3.789 -1)" fill="#fff"/>
    <path id="Path_1552" data-name="Path 1552" d="M3.508,20.508a.838.838,0,0,1-.836-.836V18H1v1.672A2.515,2.515,0,0,0,3.508,22.18H5.18V20.508Z" transform="translate(-1 -3.789)" fill="#fff"/>
    <path id="Path_1553" data-name="Path 1553" d="M19.672,20.508a.838.838,0,0,0,.836-.836V18H22.18v1.672a2.515,2.515,0,0,1-2.508,2.508H18V20.508Z" transform="translate(-3.789 -3.789)" fill="#fff"/>
    <g id="Group_78" data-name="Group 78" transform="translate(3.344 2.69)">
      <path id="Path_1554" data-name="Path 1554" d="M16.076,7.045l-4.6-2.658a1.246,1.246,0,0,0-1.254,0l-4.6,2.658A1.26,1.26,0,0,0,5,8.132V13.44a1.26,1.26,0,0,0,.627,1.087l4.6,2.658a1.246,1.246,0,0,0,1.254,0l4.6-2.658A1.26,1.26,0,0,0,16.7,13.44V8.132A1.26,1.26,0,0,0,16.076,7.045ZM6.672,13.2V9.336l3.344,1.939v3.854Zm4.18-3.369L7.508,7.889l3.344-1.931L14.2,7.889Zm.836,5.3V11.275l3.344-1.939V13.2Z" transform="translate(-5 -4.218)" fill="#fff"/>
    </g>
  </g>
</svg>
