<svg xmlns="http://www.w3.org/2000/svg" xmlns:xlink="http://www.w3.org/1999/xlink" width="50" height="50" viewBox="0 0 50 50">
  <defs>
    <clipPath id="clip-path">
      <rect id="Rectangle_407" data-name="Rectangle 407" width="50" height="50"/>
    </clipPath>
  </defs>
  <g id="sıcak-icecek-icon-wh" clip-path="url(#clip-path)">
    <g id="coffee" transform="translate(-1 -1)">
      <path id="Path_1530" data-name="Path 1530" d="M37,19h8.622v9.7a4.311,4.311,0,0,1-4.311,4.311H37" transform="translate(2.567 1.322)" fill="rgba(0,0,0,0)" stroke="#ef5f5f" stroke-miterlimit="10" stroke-width="1"/>
      <line id="Line_11" data-name="Line 11" y2="6" transform="translate(24 2)" fill="none" stroke="#ef5f5f" stroke-linecap="square" stroke-miterlimit="10" stroke-width="1"/>
      <line id="Line_12" data-name="Line 12" y2="7" transform="translate(15 4)" fill="none" stroke="#ef5f5f" stroke-linecap="square" stroke-miterlimit="10" stroke-width="1"/>
      <line id="Line_13" data-name="Line 13" y2="7" transform="translate(34 4)" fill="none" stroke="#ef5f5f" stroke-linecap="square" stroke-miterlimit="10" stroke-width="1"/>
      <path id="Path_1531" data-name="Path 1531" d="M32.711,42.945H15.467A6.466,6.466,0,0,1,9,36.477V16H39.178V36.478a6.466,6.466,0,0,1-6.468,6.467Z" transform="translate(0.389 1.089)" fill="rgba(0,0,0,0)" stroke="#ef5f5f" stroke-linecap="square" stroke-miterlimit="10" stroke-width="1"/>
      <path id="Path_1532" data-name="Path 1532" d="M4,41a5.39,5.39,0,0,0,5.388,5.389H39.567A5.39,5.39,0,0,0,44.956,41Z" transform="translate(0 3.034)" fill="rgba(0,0,0,0)" stroke="#ef5f5f" stroke-linecap="square" stroke-miterlimit="10" stroke-width="1"/>
    </g>
  </g>
</svg>
