<svg xmlns="http://www.w3.org/2000/svg" xmlns:xlink="http://www.w3.org/1999/xlink" width="50" height="50" viewBox="0 0 50 50">
  <defs>
    <clipPath id="clip-path">
      <rect id="Rectangle_365" data-name="Rectangle 365" width="50" height="50" fill="#fff"/>
    </clipPath>
  </defs>
  <g id="kampanyalar-icon-wh" clip-path="url(#clip-path)">
    <g id="romantic-dinner" transform="translate(-2 -0.667)">
      <path id="Path_1548" data-name="Path 1548" d="M49.333,40.667v-5A21.667,21.667,0,1,0,6,35.667v5" transform="translate(-0.667 -1)" fill="none" stroke="#fff" stroke-linecap="square" stroke-miterlimit="10" stroke-width="1"/>
      <g id="discount-2" transform="translate(18.667 21.322)">
        <line id="Line_30" data-name="Line 30" y1="6" x2="5" transform="translate(5.333 5.345)" fill="none" stroke="#fff" stroke-linecap="square" stroke-miterlimit="10" stroke-width="1"/>
        <circle id="Ellipse_4" data-name="Ellipse 4" cx="0.5" cy="0.5" r="0.5" transform="translate(5.333 5.345)" fill="none" stroke="#fff" stroke-linecap="square" stroke-miterlimit="10" stroke-width="1"/>
        <ellipse id="Ellipse_5" data-name="Ellipse 5" cx="0.5" cy="1" rx="0.5" ry="1" transform="translate(9.333 9.345)" fill="none" stroke="#fff" stroke-linecap="square" stroke-miterlimit="10" stroke-width="1"/>
        <path id="Path_1549" data-name="Path 1549" d="M15.733,12.563l2.113-2.641-2.113-2.64V4.113h-3.17L9.923,2,7.282,4.113H4.113V7.282L2,9.923l2.113,2.641v3.169H7.282l2.641,2.113,2.641-2.113h3.169Z" transform="translate(-2 -2)" fill="none" stroke="#fff" stroke-linecap="square" stroke-miterlimit="10" stroke-width="1"/>
      </g>
      <line id="Line_28" data-name="Line 28" x2="50" transform="translate(2 44.667)" fill="none" stroke="#fff" stroke-linecap="square" stroke-miterlimit="10" stroke-width="1"/>
      <line id="Line_29" data-name="Line 29" y1="5" transform="translate(27 7.667)" fill="none" stroke="#fff" stroke-linecap="square" stroke-miterlimit="10" stroke-width="1"/>
    </g>
  </g>
</svg>
