<svg xmlns="http://www.w3.org/2000/svg" width="428" height="89.007" viewBox="0 0 428 89.007">
  <g id="bottom_bar" data-name="bottom bar" transform="translate(0 -837)">
    <g id="Wave-100s-428px_1_" data-name="Wave-100s-428px (1)" transform="translate(0 837)">
      <path id="Path_24" data-name="Path 24" d="M0,85.127V13.6q53.5-26.414,107-1.544T214,24.809q53.5-12.121,107,29.845T428,12.076V85.127Z" transform="translate(0 3.88)" fill="#e05858" opacity="0.6"/>
      <path id="Path_25" data-name="Path 25" d="M0,89.007V23.626Q53.5-20.322,107,17.48t107,6.593Q267.5-7.136,321,41.621T428,25.947v63.06Z" transform="translate(0 0)" fill="#e05858" opacity="0.6"/>
      <path id="Path_26" data-name="Path 26" d="M0,71.58V26.5q53.5-37.746,107-8.6t107-2.951q53.5-32.1,107,4.7T428,9.948V71.58Z" transform="translate(0 17.427)" fill="#e05858" opacity="0.6"/>
      <path id="Path_27" data-name="Path 27" d="M0,82.01V1.093Q53.5-4.565,107,19.062t107,4.406q53.5-19.221,107,7.424t107,23.2V82.01Z" transform="translate(0 6.997)" fill="#e05858" opacity="0.6"/>
      <path id="Path_28" data-name="Path 28" d="M0,71.631V3.535Q53.5-7.924,107,17.762t107,3.37Q267.5-1.183,321,13.38A669.624,669.624,0,0,0,428,33.487V71.631Z" transform="translate(0 17.376)" fill="#e05858" opacity="0.6"/>
    </g>
    <g id="bundan_logo1_beyaz" transform="translate(170 887.636)">
      <path id="Path_128" data-name="Path 128" d="M81.561,88.986a6.226,6.226,0,0,0-4.105,1.37v-6.5H74.17V102h3.286v-1.192a6.5,6.5,0,1,0,4.105-11.821Zm-.926,10.3L77.6,97.541V94l3.034,1.745Zm-2.756-5.811,3.034-1.745,3.033,1.745-3.033,1.745Zm6.346,4.065-3.033,1.745V95.749L84.225,94Z" transform="translate(-70.737 -79.979)" fill="#fff"/>
      <path id="Path_129" data-name="Path 129" d="M407.59,215.309H404.3v-1.342a5.286,5.286,0,0,1-3.907,1.493c-2.986,0-4.977-2.14-4.977-5.225V202.67h3.286v6.865c0,1.742,1,2.912,2.513,2.912,1.866,0,3.086-1.244,3.086-4.28v-5.5h3.286Z" transform="translate(-377.118 -193.289)" fill="#fff"/>
      <path id="Path_130" data-name="Path 130" d="M716.671,199.835v7.787h-3.286v-7.09c0-1.742-1-2.911-2.513-2.911-1.866,0-3.086,1.244-3.086,4.28v5.722H704.5V194.983h3.286v1.12a5.285,5.285,0,0,1,3.907-1.493C714.68,194.61,716.671,196.75,716.671,199.835Z" transform="translate(-671.892 -185.602)" fill="#fff"/>
      <path id="Path_131" data-name="Path 131" d="M1010.808,102h-3.286v-1.191a6.5,6.5,0,1,1-4.105-11.821,6.226,6.226,0,0,1,4.105,1.369V83.86h3.286Zm-3.286-6.418a3.608,3.608,0,0,0-3.533-3.732,3.728,3.728,0,0,0,0,7.439,3.586,3.586,0,0,0,3.535-3.707Z" transform="translate(-951.159 -79.979)" fill="#fff"/>
      <path id="Path_132" data-name="Path 132" d="M1332.969,207.622h-3.286v-1.191a6.5,6.5,0,1,1-4.1-11.821,6.227,6.227,0,0,1,4.105,1.369v-1h3.286Zm-3.286-6.418a3.608,3.608,0,0,0-3.533-3.732,3.728,3.728,0,0,0,0,7.439,3.586,3.586,0,0,0,3.535-3.707Z" transform="translate(-1258.408 -185.602)" fill="#fff"/>
      <path id="Path_133" data-name="Path 133" d="M1669.2,199.835v7.787h-3.286v-7.09c0-1.742-1-2.911-2.514-2.911-1.866,0-3.085,1.244-3.085,4.28v5.722h-3.286V194.983h3.286v1.12a5.285,5.285,0,0,1,3.907-1.493C1667.211,194.61,1669.2,196.75,1669.2,199.835Z" transform="translate(-1580.334 -185.602)" fill="#fff"/>
      <path id="Path_134" data-name="Path 134" d="M1.409,3.848H0V1.836A1.838,1.838,0,0,1,1.836,0H4.088V1.409H1.836a.427.427,0,0,0-.426.426Z" fill="#fff"/>
      <path id="Path_135" data-name="Path 135" d="M4.088,479.588H1.836A1.838,1.838,0,0,1,0,477.753V475.74H1.409v2.013a.427.427,0,0,0,.426.426H4.088Z" transform="translate(0 -453.72)" fill="#fff"/>
      <path id="Path_136" data-name="Path 136" d="M327.008,3.848H325.6V1.836a.427.427,0,0,0-.426-.426H322.92V0h2.253a1.838,1.838,0,0,1,1.836,1.836Z" transform="translate(-307.974)" fill="#fff"/>
      <path id="Path_137" data-name="Path 137" d="M325.173,479.588H322.92v-1.409h2.253a.427.427,0,0,0,.426-.426V475.74h1.409v2.013A1.838,1.838,0,0,1,325.173,479.588Z" transform="translate(-307.974 -453.72)" fill="#fff"/>
    </g>
  </g>
</svg>
