<svg id="bundan-ust" xmlns="http://www.w3.org/2000/svg" width="428" height="89.007" viewBox="0 0 428 89.007">
  <path id="Path_24" data-name="Path 24" d="M0,0V71.522q53.5,26.414,107,1.544T214,60.318q53.5,12.121,107-29.845T428,73.051V0Z" fill="#de6c04" opacity="0.6"/>
  <path id="Path_25" data-name="Path 25" d="M0,0V65.381q53.5,43.948,107,6.147t107-6.593q53.5,31.209,107-17.548T428,63.061V0Z" fill="#de6c04" opacity="0.6"/>
  <path id="Path_26" data-name="Path 26" d="M0,0V45.075q53.5,37.746,107,8.6t107,2.951q53.5,32.1,107-4.7t107,9.706V0Z" fill="#de6c04" opacity="0.6"/>
  <path id="Path_27" data-name="Path 27" d="M0,0V80.917q53.5,5.658,107-17.969t107-4.406q53.5,19.221,107-7.424t107-23.2V0Z" fill="#de6c04" opacity="0.6"/>
  <path id="Path_28" data-name="Path 28" d="M0,0V68.1Q53.5,79.555,107,53.869T214,50.5q53.5,22.316,107,7.753A669.618,669.618,0,0,1,428,38.144V0Z" fill="#de6c04" opacity="0.6"/>
</svg>
